# xmcd
#
# Track frame offsets: 
#        150
#        40010
#        57147
#        120939
#        158840
#
# Disc length: 3068 seconds
#
# Revision: 2
# Processed by: cddbd v1.5.2PL0 Copyright (c) Steve Scherf et al.
# Submitted via: ExactAudioCopyFreeDBPlugin 1.0
#
DISCID=300bfa05
DTITLE=Cornelia Funke - Drachenreiter - Die Feder eines Greifs
DYEAR=2016
DGENRE=Hörbuch
TTITLE0=Vater und Sohn
TTITLE1=Der letzte Pegasus
TTITLE2=Ein langer Weg und wenig Zeit
TTITLE3=Ein Ende und ein erstes Mal
TTITLE4=Ein Greif liebt das Gold
EXTD=
EXTT0=
EXTT1=
EXTT2=
EXTT3=
EXTT4=
PLAYORDER=
